<svg data-v-423bf9ae="" xmlns="http://www.w3.org/2000/svg" viewBox="0 0 237.24138783235102 60" class="font"><!----><!----><!----><g data-v-423bf9ae="" id="8a9515db-0d71-47de-94f7-e037e02a30af" fill="white" transform="matrix(6.269592676418792,0,0,6.269592676418792,-0.877744984225032,-26.081504577238256)"><path d="M6.47 12.29L6.92 13.52L9.90 13.52L5.66 4.22L4.38 4.22L0.14 13.52L3.12 13.52L3.57 12.29ZM5.70 10.24L4.32 10.24L5.02 8.35ZM15.03 4.16C12.54 4.16 10.17 5.91 10.17 8.94C10.17 11.98 12.54 13.73 15.03 13.73C15.98 13.73 16.83 13.45 17.45 12.92L17.45 10.45C16.72 11.03 16.17 11.33 15.12 11.33C13.89 11.33 12.80 10.31 12.80 8.94C12.80 7.57 13.89 6.55 15.12 6.55C16.17 6.55 16.72 6.85 17.45 7.44L17.45 4.96C16.83 4.43 15.98 4.16 15.03 4.16ZM28.85 13.52L28.85 4.22L27.67 4.22L24.04 8.05L20.40 4.22L19.22 4.22L19.22 13.52L21.78 13.52L21.78 8.74L23.65 10.79L24.42 10.79L26.29 8.74L26.29 13.52ZM33.87 6.48L37.98 6.48L37.98 4.36L31.31 4.36L31.31 13.52L37.98 13.52L37.98 11.33L33.87 11.33L33.87 9.84L37.50 9.84L37.50 7.93L33.87 7.93Z"></path></g><!----><!----></svg>