<svg xmlns="http://www.w3.org/2000/svg" xmlns:xlink="http://www.w3.org/1999/xlink" version="1.1" width="256" height="256" viewBox="0 0 256 256" xml:space="preserve">

<defs>
</defs>
<g style="stroke: none; stroke-width: 0; stroke-dasharray: none; stroke-linecap: butt; stroke-linejoin: miter; stroke-miterlimit: 10; fill: none; fill-rule: nonzero; opacity: 1;" transform="translate(1.4065934065934016 1.4065934065934016) scale(2.81 2.81)" >
	<path d="M 45 7.451 c 0.524 0 1.048 0.189 1.448 0.566 l 33.217 31.317 c 1.29 1.217 0.376 3.297 -1.448 3.297 h -3.566 c -1.131 0 -2.048 0.865 -2.048 1.931 v 36.055 c 0 1.067 -0.917 1.931 -2.048 1.931 H 19.446 c -1.131 0 -2.048 -0.865 -2.048 -1.931 V 44.562 c 0 -1.067 -0.917 -1.931 -2.048 -1.931 h -3.566 c -1.825 0 -2.739 -2.08 -1.448 -3.297 L 43.552 8.017 C 43.952 7.64 44.476 7.451 45 7.451 M 45 0 c -2.455 0 -4.785 0.922 -6.56 2.595 L 5.223 33.912 c -2.802 2.642 -3.699 6.651 -2.285 10.212 c 1.208 3.043 3.856 5.181 7.008 5.784 v 30.708 c 0 5.174 4.262 9.383 9.5 9.383 h 51.109 c 5.238 0 9.5 -4.209 9.5 -9.383 V 49.909 c 3.152 -0.603 5.799 -2.741 7.008 -5.784 c 1.414 -3.562 0.518 -7.57 -2.285 -10.212 L 51.56 2.595 C 49.785 0.922 47.455 0 45 0 L 45 0 z" style="stroke: none; stroke-width: 1; stroke-dasharray: none; stroke-linecap: butt; stroke-linejoin: miter; stroke-miterlimit: 10; fill: rgb(95,94,164); fill-rule: nonzero; opacity: 1;" transform=" matrix(1 0 0 1 0 0) " stroke-linecap="round" />
</g>
</svg>